<svg width="477" height="47" viewBox="0 0 477 47" fill="none" xmlns="http://www.w3.org/2000/svg">
<path d="M21.04 10.28C21.2107 10.9627 21.296 11.816 21.296 12.84C21.296 13.8213 21.2107 14.6747 21.04 15.4C21.2107 16.0827 21.296 16.936 21.296 17.96C21.296 18.9413 21.2107 19.7947 21.04 20.52C21.2107 21.2027 21.296 22.056 21.296 23.08C21.296 24.0613 21.2107 24.9147 21.04 25.64C21.2107 26.3227 21.296 27.176 21.296 28.2C21.296 29.1813 21.2107 30.0347 21.04 30.76C21.2107 31.4427 21.296 32.296 21.296 33.32C21.296 34.3013 21.2107 35.1547 21.04 35.88C21.2107 36.5627 21.296 37.416 21.296 38.44C21.296 39.4213 21.2107 40.2747 21.04 41H15.92C15.7493 40.2747 15.664 39.4213 15.664 38.44C15.664 37.416 15.7493 36.5627 15.92 35.88C15.7493 35.1547 15.664 34.3013 15.664 33.32C15.664 32.296 15.7493 31.4427 15.92 30.76C15.7493 30.0347 15.664 29.1813 15.664 28.2C15.664 27.176 15.7493 26.3227 15.92 25.64H5.68C5.85067 26.3227 5.936 27.176 5.936 28.2C5.936 29.1813 5.85067 30.0347 5.68 30.76C5.85067 31.4427 5.936 32.296 5.936 33.32C5.936 34.3013 5.85067 35.1547 5.68 35.88C5.85067 36.5627 5.936 37.416 5.936 38.44C5.936 39.4213 5.85067 40.2747 5.68 41H0.56C0.389333 40.2747 0.304 39.4213 0.304 38.44C0.304 37.416 0.389333 36.5627 0.56 35.88C0.389333 35.1547 0.304 34.3013 0.304 33.32C0.304 32.296 0.389333 31.4427 0.56 30.76C0.389333 30.0347 0.304 29.1813 0.304 28.2C0.304 27.176 0.389333 26.3227 0.56 25.64C0.389333 24.9147 0.304 24.0613 0.304 23.08C0.304 22.056 0.389333 21.2027 0.56 20.52C0.389333 19.7947 0.304 18.9413 0.304 17.96C0.304 16.936 0.389333 16.0827 0.56 15.4C0.389333 14.6747 0.304 13.8213 0.304 12.84C0.304 11.816 0.389333 10.9627 0.56 10.28C0.389333 9.55467 0.304 8.70133 0.304 7.72C0.304 6.696 0.389333 5.84267 0.56 5.16H5.68C5.85067 5.84267 5.936 6.696 5.936 7.72C5.936 8.70133 5.85067 9.55467 5.68 10.28C5.85067 10.9627 5.936 11.816 5.936 12.84C5.936 13.8213 5.85067 14.6747 5.68 15.4C5.85067 16.0827 5.936 16.936 5.936 17.96C5.936 18.9413 5.85067 19.7947 5.68 20.52H15.92C15.7493 19.7947 15.664 18.9413 15.664 17.96C15.664 16.936 15.7493 16.0827 15.92 15.4C15.7493 14.6747 15.664 13.8213 15.664 12.84C15.664 11.816 15.7493 10.9627 15.92 10.28C15.7493 9.55467 15.664 8.70133 15.664 7.72C15.664 6.696 15.7493 5.84267 15.92 5.16H21.04C21.2107 5.84267 21.296 6.696 21.296 7.72C21.296 8.70133 21.2107 9.55467 21.04 10.28ZM45.385 35.88C45.5557 36.5627 45.641 37.416 45.641 38.44C45.641 39.4213 45.5557 40.2747 45.385 41H40.265C40.0943 40.2747 40.009 39.4213 40.009 38.44C40.009 37.416 40.0943 36.5627 40.265 35.88H38.345C38.1743 35.1547 38.089 34.3013 38.089 33.32C38.089 32.296 38.1743 31.4427 38.345 30.76H35.145C35.3157 31.4427 35.401 32.296 35.401 33.32C35.401 34.3013 35.3157 35.1547 35.145 35.88H32.585C32.7557 36.5627 32.841 37.416 32.841 38.44C32.841 39.4213 32.7557 40.2747 32.585 41H27.465C27.2943 40.2747 27.209 39.4213 27.209 38.44C27.209 37.416 27.2943 36.5627 27.465 35.88H30.025C29.8543 35.1547 29.769 34.3013 29.769 33.32C29.769 32.296 29.8543 31.4427 30.025 30.76H32.585C32.4143 30.0347 32.329 29.1813 32.329 28.2C32.329 27.176 32.4143 26.3227 32.585 25.64H30.025C29.8543 24.9147 29.769 24.0613 29.769 23.08C29.769 22.056 29.8543 21.2027 30.025 20.52H27.465C27.2943 19.7947 27.209 18.9413 27.209 17.96C27.209 16.936 27.2943 16.0827 27.465 15.4H32.585C32.7557 16.0827 32.841 16.936 32.841 17.96C32.841 18.9413 32.7557 19.7947 32.585 20.52H35.145C35.3157 21.2027 35.401 22.056 35.401 23.08C35.401 24.0613 35.3157 24.9147 35.145 25.64H38.345C38.1743 24.9147 38.089 24.0613 38.089 23.08C38.089 22.056 38.1743 21.2027 38.345 20.52H40.265C40.0943 19.7947 40.009 18.9413 40.009 17.96C40.009 16.936 40.0943 16.0827 40.265 15.4H45.385C45.5557 16.0827 45.641 16.936 45.641 17.96C45.641 18.9413 45.5557 19.7947 45.385 20.52H43.465C43.6357 21.2027 43.721 22.056 43.721 23.08C43.721 24.0613 43.6357 24.9147 43.465 25.64H40.265C40.4357 26.3227 40.521 27.176 40.521 28.2C40.521 29.1813 40.4357 30.0347 40.265 30.76H43.465C43.6357 31.4427 43.721 32.296 43.721 33.32C43.721 34.3013 43.6357 35.1547 43.465 35.88H45.385ZM72.29 20.52C72.4607 21.2027 72.546 22.056 72.546 23.08C72.546 24.0613 72.4607 24.9147 72.29 25.64H67.17C66.9993 24.9147 66.914 24.0613 66.914 23.08C66.914 22.056 66.9993 21.2027 67.17 20.52H62.69C62.8607 21.2027 62.946 22.056 62.946 23.08C62.946 24.0613 62.8607 24.9147 62.69 25.64H60.77C60.9407 26.3227 61.026 27.176 61.026 28.2C61.026 29.1813 60.9407 30.0347 60.77 30.76C60.9407 31.4427 61.026 32.296 61.026 33.32C61.026 34.3013 60.9407 35.1547 60.77 35.88H64.61C64.7807 36.5627 64.866 37.416 64.866 38.44C64.866 39.4213 64.7807 40.2747 64.61 41H51.81C51.6393 40.2747 51.554 39.4213 51.554 38.44C51.554 37.416 51.6393 36.5627 51.81 35.88H55.65C55.4793 35.1547 55.394 34.3013 55.394 33.32C55.394 32.296 55.4793 31.4427 55.65 30.76C55.4793 30.0347 55.394 29.1813 55.394 28.2C55.394 27.176 55.4793 26.3227 55.65 25.64C55.4793 24.9147 55.394 24.0613 55.394 23.08C55.394 22.056 55.4793 21.2027 55.65 20.52H51.81C51.6393 19.7947 51.554 18.9413 51.554 17.96C51.554 16.936 51.6393 16.0827 51.81 15.4H58.21C58.3807 16.0827 58.466 16.936 58.466 17.96C58.466 18.9413 58.3807 19.7947 58.21 20.52H60.77C60.5993 19.7947 60.514 18.9413 60.514 17.96C60.514 16.936 60.5993 16.0827 60.77 15.4H70.37C70.5407 16.0827 70.626 16.936 70.626 17.96C70.626 18.9413 70.5407 19.7947 70.37 20.52H72.29ZM98.171 28.2C98.171 29.1813 98.0857 30.0347 97.915 30.76H95.995C96.1657 31.4427 96.251 32.296 96.251 33.32C96.251 34.3013 96.1657 35.1547 95.995 35.88H92.795C92.9657 36.5627 93.051 37.416 93.051 38.44C93.051 39.4213 92.9657 40.2747 92.795 41H82.555C82.3843 40.2747 82.299 39.4213 82.299 38.44C82.299 37.416 82.3843 36.5627 82.555 35.88H79.355C79.1843 35.1547 79.099 34.3013 79.099 33.32C79.099 32.296 79.1843 31.4427 79.355 30.76H77.435C77.2643 30.0347 77.179 29.1813 77.179 28.2C77.179 27.176 77.2643 26.3227 77.435 25.64H79.355C79.1843 24.9147 79.099 24.0613 79.099 23.08C79.099 22.056 79.1843 21.2027 79.355 20.52H82.555C82.3843 19.7947 82.299 18.9413 82.299 17.96C82.299 16.936 82.3843 16.0827 82.555 15.4H92.795C92.9657 16.0827 93.051 16.936 93.051 17.96C93.051 18.9413 92.9657 19.7947 92.795 20.52H95.995C96.1657 21.2027 96.251 22.056 96.251 23.08C96.251 24.0613 96.1657 24.9147 95.995 25.64H97.915C98.0857 26.3227 98.171 27.176 98.171 28.2ZM92.795 30.76C92.6243 30.0347 92.539 29.1813 92.539 28.2C92.539 27.176 92.6243 26.3227 92.795 25.64H90.875C90.7043 24.9147 90.619 24.0613 90.619 23.08C90.619 22.056 90.7043 21.2027 90.875 20.52H84.475C84.6457 21.2027 84.731 22.056 84.731 23.08C84.731 24.0613 84.6457 24.9147 84.475 25.64H82.555C82.7257 26.3227 82.811 27.176 82.811 28.2C82.811 29.1813 82.7257 30.0347 82.555 30.76H84.475C84.6457 31.4427 84.731 32.296 84.731 33.32C84.731 34.3013 84.6457 35.1547 84.475 35.88H90.875C90.7043 35.1547 90.619 34.3013 90.619 33.32C90.619 32.296 90.7043 31.4427 90.875 30.76H92.795ZM123.54 10.28C123.711 10.9627 123.796 11.816 123.796 12.84C123.796 13.8213 123.711 14.6747 123.54 15.4C123.711 16.0827 123.796 16.936 123.796 17.96C123.796 18.9413 123.711 19.7947 123.54 20.52C123.711 21.2027 123.796 22.056 123.796 23.08C123.796 24.0613 123.711 24.9147 123.54 25.64C123.711 26.3227 123.796 27.176 123.796 28.2C123.796 29.1813 123.711 30.0347 123.54 30.76C123.711 31.4427 123.796 32.296 123.796 33.32C123.796 34.3013 123.711 35.1547 123.54 35.88C123.711 36.5627 123.796 37.416 123.796 38.44C123.796 39.4213 123.711 40.2747 123.54 41H118.42C118.249 40.2747 118.164 39.4213 118.164 38.44C118.164 37.416 118.249 36.5627 118.42 35.88H115.22C115.049 35.1547 114.964 34.3013 114.964 33.32C114.964 32.296 115.049 31.4427 115.22 30.76H113.3C113.129 30.0347 113.044 29.1813 113.044 28.2C113.044 27.176 113.129 26.3227 113.3 25.64H110.74C110.569 24.9147 110.484 24.0613 110.484 23.08C110.484 22.056 110.569 21.2027 110.74 20.52H108.18C108.351 21.2027 108.436 22.056 108.436 23.08C108.436 24.0613 108.351 24.9147 108.18 25.64C108.351 26.3227 108.436 27.176 108.436 28.2C108.436 29.1813 108.351 30.0347 108.18 30.76C108.351 31.4427 108.436 32.296 108.436 33.32C108.436 34.3013 108.351 35.1547 108.18 35.88C108.351 36.5627 108.436 37.416 108.436 38.44C108.436 39.4213 108.351 40.2747 108.18 41H103.06C102.889 40.2747 102.804 39.4213 102.804 38.44C102.804 37.416 102.889 36.5627 103.06 35.88C102.889 35.1547 102.804 34.3013 102.804 33.32C102.804 32.296 102.889 31.4427 103.06 30.76C102.889 30.0347 102.804 29.1813 102.804 28.2C102.804 27.176 102.889 26.3227 103.06 25.64C102.889 24.9147 102.804 24.0613 102.804 23.08C102.804 22.056 102.889 21.2027 103.06 20.52C102.889 19.7947 102.804 18.9413 102.804 17.96C102.804 16.936 102.889 16.0827 103.06 15.4C102.889 14.6747 102.804 13.8213 102.804 12.84C102.804 11.816 102.889 10.9627 103.06 10.28C102.889 9.55467 102.804 8.70133 102.804 7.72C102.804 6.696 102.889 5.84267 103.06 5.16H109.46C109.631 5.84267 109.716 6.696 109.716 7.72C109.716 8.70133 109.631 9.55467 109.46 10.28H111.38C111.551 10.9627 111.636 11.816 111.636 12.84C111.636 13.8213 111.551 14.6747 111.38 15.4H113.3C113.471 16.0827 113.556 16.936 113.556 17.96C113.556 18.9413 113.471 19.7947 113.3 20.52H115.86C116.031 21.2027 116.116 22.056 116.116 23.08C116.116 24.0613 116.031 24.9147 115.86 25.64H118.42C118.249 24.9147 118.164 24.0613 118.164 23.08C118.164 22.056 118.249 21.2027 118.42 20.52C118.249 19.7947 118.164 18.9413 118.164 17.96C118.164 16.936 118.249 16.0827 118.42 15.4C118.249 14.6747 118.164 13.8213 118.164 12.84C118.164 11.816 118.249 10.9627 118.42 10.28C118.249 9.55467 118.164 8.70133 118.164 7.72C118.164 6.696 118.249 5.84267 118.42 5.16H123.54C123.711 5.84267 123.796 6.696 123.796 7.72C123.796 8.70133 123.711 9.55467 123.54 10.28ZM149.421 23.08C149.421 24.0613 149.336 24.9147 149.165 25.64C149.336 26.3227 149.421 27.176 149.421 28.2C149.421 29.1813 149.336 30.0347 149.165 30.76H135.725C135.896 31.4427 135.981 32.296 135.981 33.32C135.981 34.3013 135.896 35.1547 135.725 35.88H146.605C146.776 36.5627 146.861 37.416 146.861 38.44C146.861 39.4213 146.776 40.2747 146.605 41H133.805C133.634 40.2747 133.549 39.4213 133.549 38.44C133.549 37.416 133.634 36.5627 133.805 35.88H130.605C130.434 35.1547 130.349 34.3013 130.349 33.32C130.349 32.296 130.434 31.4427 130.605 30.76H128.685C128.514 30.0347 128.429 29.1813 128.429 28.2C128.429 27.176 128.514 26.3227 128.685 25.64H130.605C130.434 24.9147 130.349 24.0613 130.349 23.08C130.349 22.056 130.434 21.2027 130.605 20.52H133.805C133.634 19.7947 133.549 18.9413 133.549 17.96C133.549 16.936 133.634 16.0827 133.805 15.4H146.605C146.776 16.0827 146.861 16.936 146.861 17.96C146.861 18.9413 146.776 19.7947 146.605 20.52H149.165C149.336 21.2027 149.421 22.056 149.421 23.08ZM144.045 25.64C143.874 24.9147 143.789 24.0613 143.789 23.08C143.789 22.056 143.874 21.2027 144.045 20.52H135.725C135.896 21.2027 135.981 22.056 135.981 23.08C135.981 24.0613 135.896 24.9147 135.725 25.64H144.045ZM172.23 35.88C172.401 36.5627 172.486 37.416 172.486 38.44C172.486 39.4213 172.401 40.2747 172.23 41H161.99C161.819 40.2747 161.734 39.4213 161.734 38.44C161.734 37.416 161.819 36.5627 161.99 35.88H159.43C159.259 35.1547 159.174 34.3013 159.174 33.32C159.174 32.296 159.259 31.4427 159.43 30.76C159.259 30.0347 159.174 29.1813 159.174 28.2C159.174 27.176 159.259 26.3227 159.43 25.64C159.259 24.9147 159.174 24.0613 159.174 23.08C159.174 22.056 159.259 21.2027 159.43 20.52H154.31C154.139 19.7947 154.054 18.9413 154.054 17.96C154.054 16.936 154.139 16.0827 154.31 15.4H159.43C159.259 14.6747 159.174 13.8213 159.174 12.84C159.174 11.816 159.259 10.9627 159.43 10.28C159.259 9.55467 159.174 8.70133 159.174 7.72C159.174 6.696 159.259 5.84267 159.43 5.16H164.55C164.721 5.84267 164.806 6.696 164.806 7.72C164.806 8.70133 164.721 9.55467 164.55 10.28C164.721 10.9627 164.806 11.816 164.806 12.84C164.806 13.8213 164.721 14.6747 164.55 15.4H172.23C172.401 16.0827 172.486 16.936 172.486 17.96C172.486 18.9413 172.401 19.7947 172.23 20.52H164.55C164.721 21.2027 164.806 22.056 164.806 23.08C164.806 24.0613 164.721 24.9147 164.55 25.64C164.721 26.3227 164.806 27.176 164.806 28.2C164.806 29.1813 164.721 30.0347 164.55 30.76C164.721 31.4427 164.806 32.296 164.806 33.32C164.806 34.3013 164.721 35.1547 164.55 35.88H172.23ZM200.671 17.96C200.671 18.9413 200.586 19.7947 200.415 20.52C200.586 21.2027 200.671 22.056 200.671 23.08C200.671 24.0613 200.586 24.9147 200.415 25.64H198.495C198.666 26.3227 198.751 27.176 198.751 28.2C198.751 29.1813 198.666 30.0347 198.495 30.76C198.666 31.4427 198.751 32.296 198.751 33.32C198.751 34.3013 198.666 35.1547 198.495 35.88H197.215C197.386 36.5627 197.471 37.416 197.471 38.44C197.471 39.4213 197.386 40.2747 197.215 41H193.375C193.204 40.2747 193.119 39.4213 193.119 38.44C193.119 37.416 193.204 36.5627 193.375 35.88H192.095C191.924 35.1547 191.839 34.3013 191.839 33.32C191.839 32.296 191.924 31.4427 192.095 30.76H188.255C188.426 31.4427 188.511 32.296 188.511 33.32C188.511 34.3013 188.426 35.1547 188.255 35.88H186.975C187.146 36.5627 187.231 37.416 187.231 38.44C187.231 39.4213 187.146 40.2747 186.975 41H183.135C182.964 40.2747 182.879 39.4213 182.879 38.44C182.879 37.416 182.964 36.5627 183.135 35.88H181.855C181.684 35.1547 181.599 34.3013 181.599 33.32C181.599 32.296 181.684 31.4427 181.855 30.76C181.684 30.0347 181.599 29.1813 181.599 28.2C181.599 27.176 181.684 26.3227 181.855 25.64H179.935C179.764 24.9147 179.679 24.0613 179.679 23.08C179.679 22.056 179.764 21.2027 179.935 20.52C179.764 19.7947 179.679 18.9413 179.679 17.96C179.679 16.936 179.764 16.0827 179.935 15.4H185.055C185.226 16.0827 185.311 16.936 185.311 17.96C185.311 18.9413 185.226 19.7947 185.055 20.52C185.226 21.2027 185.311 22.056 185.311 23.08C185.311 24.0613 185.226 24.9147 185.055 25.64C185.226 26.3227 185.311 27.176 185.311 28.2C185.311 29.1813 185.226 30.0347 185.055 30.76H186.975C186.804 30.0347 186.719 29.1813 186.719 28.2C186.719 27.176 186.804 26.3227 186.975 25.64H188.255C188.084 24.9147 187.999 24.0613 187.999 23.08C187.999 22.056 188.084 21.2027 188.255 20.52C188.084 19.7947 187.999 18.9413 187.999 17.96C187.999 16.936 188.084 16.0827 188.255 15.4H192.095C192.266 16.0827 192.351 16.936 192.351 17.96C192.351 18.9413 192.266 19.7947 192.095 20.52C192.266 21.2027 192.351 22.056 192.351 23.08C192.351 24.0613 192.266 24.9147 192.095 25.64H193.375C193.546 26.3227 193.631 27.176 193.631 28.2C193.631 29.1813 193.546 30.0347 193.375 30.76H195.295C195.124 30.0347 195.039 29.1813 195.039 28.2C195.039 27.176 195.124 26.3227 195.295 25.64C195.124 24.9147 195.039 24.0613 195.039 23.08C195.039 22.056 195.124 21.2027 195.295 20.52C195.124 19.7947 195.039 18.9413 195.039 17.96C195.039 16.936 195.124 16.0827 195.295 15.4H200.415C200.586 16.0827 200.671 16.936 200.671 17.96ZM226.296 28.2C226.296 29.1813 226.211 30.0347 226.04 30.76H224.12C224.291 31.4427 224.376 32.296 224.376 33.32C224.376 34.3013 224.291 35.1547 224.12 35.88H220.92C221.091 36.5627 221.176 37.416 221.176 38.44C221.176 39.4213 221.091 40.2747 220.92 41H210.68C210.509 40.2747 210.424 39.4213 210.424 38.44C210.424 37.416 210.509 36.5627 210.68 35.88H207.48C207.309 35.1547 207.224 34.3013 207.224 33.32C207.224 32.296 207.309 31.4427 207.48 30.76H205.56C205.389 30.0347 205.304 29.1813 205.304 28.2C205.304 27.176 205.389 26.3227 205.56 25.64H207.48C207.309 24.9147 207.224 24.0613 207.224 23.08C207.224 22.056 207.309 21.2027 207.48 20.52H210.68C210.509 19.7947 210.424 18.9413 210.424 17.96C210.424 16.936 210.509 16.0827 210.68 15.4H220.92C221.091 16.0827 221.176 16.936 221.176 17.96C221.176 18.9413 221.091 19.7947 220.92 20.52H224.12C224.291 21.2027 224.376 22.056 224.376 23.08C224.376 24.0613 224.291 24.9147 224.12 25.64H226.04C226.211 26.3227 226.296 27.176 226.296 28.2ZM220.92 30.76C220.749 30.0347 220.664 29.1813 220.664 28.2C220.664 27.176 220.749 26.3227 220.92 25.64H219C218.829 24.9147 218.744 24.0613 218.744 23.08C218.744 22.056 218.829 21.2027 219 20.52H212.6C212.771 21.2027 212.856 22.056 212.856 23.08C212.856 24.0613 212.771 24.9147 212.6 25.64H210.68C210.851 26.3227 210.936 27.176 210.936 28.2C210.936 29.1813 210.851 30.0347 210.68 30.76H212.6C212.771 31.4427 212.856 32.296 212.856 33.32C212.856 34.3013 212.771 35.1547 212.6 35.88H219C218.829 35.1547 218.744 34.3013 218.744 33.32C218.744 32.296 218.829 31.4427 219 30.76H220.92ZM251.665 20.52C251.836 21.2027 251.921 22.056 251.921 23.08C251.921 24.0613 251.836 24.9147 251.665 25.64H246.545C246.374 24.9147 246.289 24.0613 246.289 23.08C246.289 22.056 246.374 21.2027 246.545 20.52H242.065C242.236 21.2027 242.321 22.056 242.321 23.08C242.321 24.0613 242.236 24.9147 242.065 25.64H240.145C240.316 26.3227 240.401 27.176 240.401 28.2C240.401 29.1813 240.316 30.0347 240.145 30.76C240.316 31.4427 240.401 32.296 240.401 33.32C240.401 34.3013 240.316 35.1547 240.145 35.88H243.985C244.156 36.5627 244.241 37.416 244.241 38.44C244.241 39.4213 244.156 40.2747 243.985 41H231.185C231.014 40.2747 230.929 39.4213 230.929 38.44C230.929 37.416 231.014 36.5627 231.185 35.88H235.025C234.854 35.1547 234.769 34.3013 234.769 33.32C234.769 32.296 234.854 31.4427 235.025 30.76C234.854 30.0347 234.769 29.1813 234.769 28.2C234.769 27.176 234.854 26.3227 235.025 25.64C234.854 24.9147 234.769 24.0613 234.769 23.08C234.769 22.056 234.854 21.2027 235.025 20.52H231.185C231.014 19.7947 230.929 18.9413 230.929 17.96C230.929 16.936 231.014 16.0827 231.185 15.4H237.585C237.756 16.0827 237.841 16.936 237.841 17.96C237.841 18.9413 237.756 19.7947 237.585 20.52H240.145C239.974 19.7947 239.889 18.9413 239.889 17.96C239.889 16.936 239.974 16.0827 240.145 15.4H249.745C249.916 16.0827 250.001 16.936 250.001 17.96C250.001 18.9413 249.916 19.7947 249.745 20.52H251.665ZM277.29 35.88C277.461 36.5627 277.546 37.416 277.546 38.44C277.546 39.4213 277.461 40.2747 277.29 41H268.33C268.159 40.2747 268.074 39.4213 268.074 38.44C268.074 37.416 268.159 36.5627 268.33 35.88H265.77C265.599 35.1547 265.514 34.3013 265.514 33.32C265.514 32.296 265.599 31.4427 265.77 30.76H261.93C262.101 31.4427 262.186 32.296 262.186 33.32C262.186 34.3013 262.101 35.1547 261.93 35.88C262.101 36.5627 262.186 37.416 262.186 38.44C262.186 39.4213 262.101 40.2747 261.93 41H256.81C256.639 40.2747 256.554 39.4213 256.554 38.44C256.554 37.416 256.639 36.5627 256.81 35.88C256.639 35.1547 256.554 34.3013 256.554 33.32C256.554 32.296 256.639 31.4427 256.81 30.76C256.639 30.0347 256.554 29.1813 256.554 28.2C256.554 27.176 256.639 26.3227 256.81 25.64C256.639 24.9147 256.554 24.0613 256.554 23.08C256.554 22.056 256.639 21.2027 256.81 20.52C256.639 19.7947 256.554 18.9413 256.554 17.96C256.554 16.936 256.639 16.0827 256.81 15.4C256.639 14.6747 256.554 13.8213 256.554 12.84C256.554 11.816 256.639 10.9627 256.81 10.28C256.639 9.55467 256.554 8.70133 256.554 7.72C256.554 6.696 256.639 5.84267 256.81 5.16H261.93C262.101 5.84267 262.186 6.696 262.186 7.72C262.186 8.70133 262.101 9.55467 261.93 10.28C262.101 10.9627 262.186 11.816 262.186 12.84C262.186 13.8213 262.101 14.6747 261.93 15.4C262.101 16.0827 262.186 16.936 262.186 17.96C262.186 18.9413 262.101 19.7947 261.93 20.52C262.101 21.2027 262.186 22.056 262.186 23.08C262.186 24.0613 262.101 24.9147 261.93 25.64H265.77C265.599 24.9147 265.514 24.0613 265.514 23.08C265.514 22.056 265.599 21.2027 265.77 20.52H268.33C268.159 19.7947 268.074 18.9413 268.074 17.96C268.074 16.936 268.159 16.0827 268.33 15.4H276.01C276.181 16.0827 276.266 16.936 276.266 17.96C276.266 18.9413 276.181 19.7947 276.01 20.52H270.89C271.061 21.2027 271.146 22.056 271.146 23.08C271.146 24.0613 271.061 24.9147 270.89 25.64H268.33C268.501 26.3227 268.586 27.176 268.586 28.2C268.586 29.1813 268.501 30.0347 268.33 30.76H270.89C271.061 31.4427 271.146 32.296 271.146 33.32C271.146 34.3013 271.061 35.1547 270.89 35.88H277.29ZM298.371 2.6C298.371 3.58133 298.286 4.43467 298.115 5.16H294.915C294.744 4.43467 294.659 3.58133 294.659 2.6C294.659 1.576 294.744 0.722665 294.915 0.0399971H298.115C298.286 0.722665 298.371 1.576 298.371 2.6ZM294.915 35.88C295.086 36.5627 295.171 37.416 295.171 38.44C295.171 39.4213 295.086 40.2747 294.915 41H291.715C291.544 40.2747 291.459 39.4213 291.459 38.44C291.459 37.416 291.544 36.5627 291.715 35.88H290.115C289.944 35.1547 289.859 34.3013 289.859 33.32C289.859 32.296 289.944 31.4427 290.115 30.76H288.195C288.024 30.0347 287.939 29.1813 287.939 28.2C287.939 27.176 288.024 26.3227 288.195 25.64C288.024 24.9147 287.939 24.0613 287.939 23.08C287.939 22.056 288.024 21.2027 288.195 20.52C288.024 19.7947 287.939 18.9413 287.939 17.96C287.939 16.936 288.024 16.0827 288.195 15.4H290.115C289.944 14.6747 289.859 13.8213 289.859 12.84C289.859 11.816 289.944 10.9627 290.115 10.28H291.715C291.544 9.55467 291.459 8.70133 291.459 7.72C291.459 6.696 291.544 5.84267 291.715 5.16H294.915C295.086 5.84267 295.171 6.696 295.171 7.72C295.171 8.70133 295.086 9.55467 294.915 10.28H293.315C293.486 10.9627 293.571 11.816 293.571 12.84C293.571 13.8213 293.486 14.6747 293.315 15.4C293.486 16.0827 293.571 16.936 293.571 17.96C293.571 18.9413 293.486 19.7947 293.315 20.52C293.486 21.2027 293.571 22.056 293.571 23.08C293.571 24.0613 293.486 24.9147 293.315 25.64C293.486 26.3227 293.571 27.176 293.571 28.2C293.571 29.1813 293.486 30.0347 293.315 30.76C293.486 31.4427 293.571 32.296 293.571 33.32C293.571 34.3013 293.486 35.1547 293.315 35.88H294.915ZM298.115 41C298.286 41.6827 298.371 42.536 298.371 43.56C298.371 44.5413 298.286 45.3947 298.115 46.12H294.915C294.744 45.3947 294.659 44.5413 294.659 43.56C294.659 42.536 294.744 41.6827 294.915 41H298.115ZM316.06 0.0399971C316.231 0.722665 316.316 1.576 316.316 2.6C316.316 3.58133 316.231 4.43467 316.06 5.16H312.86C312.689 4.43467 312.604 3.58133 312.604 2.6C312.604 1.576 312.689 0.722665 312.86 0.0399971H316.06ZM322.78 20.52C322.951 21.2027 323.036 22.056 323.036 23.08C323.036 24.0613 322.951 24.9147 322.78 25.64C322.951 26.3227 323.036 27.176 323.036 28.2C323.036 29.1813 322.951 30.0347 322.78 30.76H320.86C321.031 31.4427 321.116 32.296 321.116 33.32C321.116 34.3013 321.031 35.1547 320.86 35.88H319.26C319.431 36.5627 319.516 37.416 319.516 38.44C319.516 39.4213 319.431 40.2747 319.26 41H316.06C315.889 40.2747 315.804 39.4213 315.804 38.44C315.804 37.416 315.889 36.5627 316.06 35.88H317.66C317.489 35.1547 317.404 34.3013 317.404 33.32C317.404 32.296 317.489 31.4427 317.66 30.76C317.489 30.0347 317.404 29.1813 317.404 28.2C317.404 27.176 317.489 26.3227 317.66 25.64C317.489 24.9147 317.404 24.0613 317.404 23.08C317.404 22.056 317.489 21.2027 317.66 20.52C317.489 19.7947 317.404 18.9413 317.404 17.96C317.404 16.936 317.489 16.0827 317.66 15.4C317.489 14.6747 317.404 13.8213 317.404 12.84C317.404 11.816 317.489 10.9627 317.66 10.28H316.06C315.889 9.55467 315.804 8.70133 315.804 7.72C315.804 6.696 315.889 5.84267 316.06 5.16H319.26C319.431 5.84267 319.516 6.696 319.516 7.72C319.516 8.70133 319.431 9.55467 319.26 10.28H320.86C321.031 10.9627 321.116 11.816 321.116 12.84C321.116 13.8213 321.031 14.6747 320.86 15.4H322.78C322.951 16.0827 323.036 16.936 323.036 17.96C323.036 18.9413 322.951 19.7947 322.78 20.52ZM312.604 43.56C312.604 42.536 312.689 41.6827 312.86 41H316.06C316.231 41.6827 316.316 42.536 316.316 43.56C316.316 44.5413 316.231 45.3947 316.06 46.12H312.86C312.689 45.3947 312.604 44.5413 312.604 43.56ZM347.381 33.32C347.381 34.3013 347.296 35.1547 347.125 35.88C347.296 36.5627 347.381 37.416 347.381 38.44C347.381 39.4213 347.296 40.2747 347.125 41H340.725C340.554 40.2747 340.469 39.4213 340.469 38.44C340.469 37.416 340.554 36.5627 340.725 35.88C340.554 35.1547 340.469 34.3013 340.469 33.32C340.469 32.296 340.554 31.4427 340.725 30.76H347.125C347.296 31.4427 347.381 32.296 347.381 33.32ZM379.79 10.28C379.961 10.9627 380.046 11.816 380.046 12.84C380.046 13.8213 379.961 14.6747 379.79 15.4C379.961 16.0827 380.046 16.936 380.046 17.96C380.046 18.9413 379.961 19.7947 379.79 20.52C379.961 21.2027 380.046 22.056 380.046 23.08C380.046 24.0613 379.961 24.9147 379.79 25.64C379.961 26.3227 380.046 27.176 380.046 28.2C380.046 29.1813 379.961 30.0347 379.79 30.76C379.961 31.4427 380.046 32.296 380.046 33.32C380.046 34.3013 379.961 35.1547 379.79 35.88C379.961 36.5627 380.046 37.416 380.046 38.44C380.046 39.4213 379.961 40.2747 379.79 41H374.67C374.499 40.2747 374.414 39.4213 374.414 38.44C374.414 37.416 374.499 36.5627 374.67 35.88H372.75C372.579 35.1547 372.494 34.3013 372.494 33.32C372.494 32.296 372.579 31.4427 372.75 30.76H374.67C374.499 30.0347 374.414 29.1813 374.414 28.2C374.414 27.176 374.499 26.3227 374.67 25.64H372.75C372.579 24.9147 372.494 24.0613 372.494 23.08C372.494 22.056 372.579 21.2027 372.75 20.52H374.67C374.499 19.7947 374.414 18.9413 374.414 17.96C374.414 16.936 374.499 16.0827 374.67 15.4C374.499 14.6747 374.414 13.8213 374.414 12.84C374.414 11.816 374.499 10.9627 374.67 10.28C374.499 9.55467 374.414 8.70133 374.414 7.72C374.414 6.696 374.499 5.84267 374.67 5.16H379.79C379.961 5.84267 380.046 6.696 380.046 7.72C380.046 8.70133 379.961 9.55467 379.79 10.28ZM371.726 17.96C371.726 18.9413 371.641 19.7947 371.47 20.52H365.07C365.241 21.2027 365.326 22.056 365.326 23.08C365.326 24.0613 365.241 24.9147 365.07 25.64H363.15C363.321 26.3227 363.406 27.176 363.406 28.2C363.406 29.1813 363.321 30.0347 363.15 30.76H365.07C365.241 31.4427 365.326 32.296 365.326 33.32C365.326 34.3013 365.241 35.1547 365.07 35.88H371.47C371.641 36.5627 371.726 37.416 371.726 38.44C371.726 39.4213 371.641 40.2747 371.47 41H364.43C364.259 40.2747 364.174 39.4213 364.174 38.44C364.174 37.416 364.259 36.5627 364.43 35.88H361.23C361.059 35.1547 360.974 34.3013 360.974 33.32C360.974 32.296 361.059 31.4427 361.23 30.76H359.31C359.139 30.0347 359.054 29.1813 359.054 28.2C359.054 27.176 359.139 26.3227 359.31 25.64H361.23C361.059 24.9147 360.974 24.0613 360.974 23.08C360.974 22.056 361.059 21.2027 361.23 20.52H364.43C364.259 19.7947 364.174 18.9413 364.174 17.96C364.174 16.936 364.259 16.0827 364.43 15.4H371.47C371.641 16.0827 371.726 16.936 371.726 17.96ZM405.671 23.08C405.671 24.0613 405.586 24.9147 405.415 25.64C405.586 26.3227 405.671 27.176 405.671 28.2C405.671 29.1813 405.586 30.0347 405.415 30.76H391.975C392.146 31.4427 392.231 32.296 392.231 33.32C392.231 34.3013 392.146 35.1547 391.975 35.88H402.855C403.026 36.5627 403.111 37.416 403.111 38.44C403.111 39.4213 403.026 40.2747 402.855 41H390.055C389.884 40.2747 389.799 39.4213 389.799 38.44C389.799 37.416 389.884 36.5627 390.055 35.88H386.855C386.684 35.1547 386.599 34.3013 386.599 33.32C386.599 32.296 386.684 31.4427 386.855 30.76H384.935C384.764 30.0347 384.679 29.1813 384.679 28.2C384.679 27.176 384.764 26.3227 384.935 25.64H386.855C386.684 24.9147 386.599 24.0613 386.599 23.08C386.599 22.056 386.684 21.2027 386.855 20.52H390.055C389.884 19.7947 389.799 18.9413 389.799 17.96C389.799 16.936 389.884 16.0827 390.055 15.4H402.855C403.026 16.0827 403.111 16.936 403.111 17.96C403.111 18.9413 403.026 19.7947 402.855 20.52H405.415C405.586 21.2027 405.671 22.056 405.671 23.08ZM400.295 25.64C400.124 24.9147 400.039 24.0613 400.039 23.08C400.039 22.056 400.124 21.2027 400.295 20.52H391.975C392.146 21.2027 392.231 22.056 392.231 23.08C392.231 24.0613 392.146 24.9147 391.975 25.64H400.295ZM431.296 17.96C431.296 18.9413 431.211 19.7947 431.04 20.52H429.12C429.291 21.2027 429.376 22.056 429.376 23.08C429.376 24.0613 429.291 24.9147 429.12 25.64H427.2C427.371 26.3227 427.456 27.176 427.456 28.2C427.456 29.1813 427.371 30.0347 427.2 30.76H425.92C426.091 31.4427 426.176 32.296 426.176 33.32C426.176 34.3013 426.091 35.1547 425.92 35.88H423.36C423.531 36.5627 423.616 37.416 423.616 38.44C423.616 39.4213 423.531 40.2747 423.36 41H418.24C418.069 40.2747 417.984 39.4213 417.984 38.44C417.984 37.416 418.069 36.5627 418.24 35.88H415.68C415.509 35.1547 415.424 34.3013 415.424 33.32C415.424 32.296 415.509 31.4427 415.68 30.76H414.4C414.229 30.0347 414.144 29.1813 414.144 28.2C414.144 27.176 414.229 26.3227 414.4 25.64H412.48C412.309 24.9147 412.224 24.0613 412.224 23.08C412.224 22.056 412.309 21.2027 412.48 20.52H410.56C410.389 19.7947 410.304 18.9413 410.304 17.96C410.304 16.936 410.389 16.0827 410.56 15.4H415.68C415.851 16.0827 415.936 16.936 415.936 17.96C415.936 18.9413 415.851 19.7947 415.68 20.52H417.6C417.771 21.2027 417.856 22.056 417.856 23.08C417.856 24.0613 417.771 24.9147 417.6 25.64H419.52C419.691 26.3227 419.776 27.176 419.776 28.2C419.776 29.1813 419.691 30.0347 419.52 30.76H422.08C421.909 30.0347 421.824 29.1813 421.824 28.2C421.824 27.176 421.909 26.3227 422.08 25.64H424C423.829 24.9147 423.744 24.0613 423.744 23.08C423.744 22.056 423.829 21.2027 424 20.52H425.92C425.749 19.7947 425.664 18.9413 425.664 17.96C425.664 16.936 425.749 16.0827 425.92 15.4H431.04C431.211 16.0827 431.296 16.936 431.296 17.96ZM452.121 2.6C452.121 3.58133 452.036 4.43467 451.865 5.16H448.665C448.494 4.43467 448.409 3.58133 448.409 2.6C448.409 1.576 448.494 0.722665 448.665 0.0399971H451.865C452.036 0.722665 452.121 1.576 452.121 2.6ZM448.665 35.88C448.836 36.5627 448.921 37.416 448.921 38.44C448.921 39.4213 448.836 40.2747 448.665 41H445.465C445.294 40.2747 445.209 39.4213 445.209 38.44C445.209 37.416 445.294 36.5627 445.465 35.88H443.865C443.694 35.1547 443.609 34.3013 443.609 33.32C443.609 32.296 443.694 31.4427 443.865 30.76H441.945C441.774 30.0347 441.689 29.1813 441.689 28.2C441.689 27.176 441.774 26.3227 441.945 25.64C441.774 24.9147 441.689 24.0613 441.689 23.08C441.689 22.056 441.774 21.2027 441.945 20.52C441.774 19.7947 441.689 18.9413 441.689 17.96C441.689 16.936 441.774 16.0827 441.945 15.4H443.865C443.694 14.6747 443.609 13.8213 443.609 12.84C443.609 11.816 443.694 10.9627 443.865 10.28H445.465C445.294 9.55467 445.209 8.70133 445.209 7.72C445.209 6.696 445.294 5.84267 445.465 5.16H448.665C448.836 5.84267 448.921 6.696 448.921 7.72C448.921 8.70133 448.836 9.55467 448.665 10.28H447.065C447.236 10.9627 447.321 11.816 447.321 12.84C447.321 13.8213 447.236 14.6747 447.065 15.4C447.236 16.0827 447.321 16.936 447.321 17.96C447.321 18.9413 447.236 19.7947 447.065 20.52C447.236 21.2027 447.321 22.056 447.321 23.08C447.321 24.0613 447.236 24.9147 447.065 25.64C447.236 26.3227 447.321 27.176 447.321 28.2C447.321 29.1813 447.236 30.0347 447.065 30.76C447.236 31.4427 447.321 32.296 447.321 33.32C447.321 34.3013 447.236 35.1547 447.065 35.88H448.665ZM451.865 41C452.036 41.6827 452.121 42.536 452.121 43.56C452.121 44.5413 452.036 45.3947 451.865 46.12H448.665C448.494 45.3947 448.409 44.5413 448.409 43.56C448.409 42.536 448.494 41.6827 448.665 41H451.865ZM469.81 0.0399971C469.981 0.722665 470.066 1.576 470.066 2.6C470.066 3.58133 469.981 4.43467 469.81 5.16H466.61C466.439 4.43467 466.354 3.58133 466.354 2.6C466.354 1.576 466.439 0.722665 466.61 0.0399971H469.81ZM476.53 20.52C476.701 21.2027 476.786 22.056 476.786 23.08C476.786 24.0613 476.701 24.9147 476.53 25.64C476.701 26.3227 476.786 27.176 476.786 28.2C476.786 29.1813 476.701 30.0347 476.53 30.76H474.61C474.781 31.4427 474.866 32.296 474.866 33.32C474.866 34.3013 474.781 35.1547 474.61 35.88H473.01C473.181 36.5627 473.266 37.416 473.266 38.44C473.266 39.4213 473.181 40.2747 473.01 41H469.81C469.639 40.2747 469.554 39.4213 469.554 38.44C469.554 37.416 469.639 36.5627 469.81 35.88H471.41C471.239 35.1547 471.154 34.3013 471.154 33.32C471.154 32.296 471.239 31.4427 471.41 30.76C471.239 30.0347 471.154 29.1813 471.154 28.2C471.154 27.176 471.239 26.3227 471.41 25.64C471.239 24.9147 471.154 24.0613 471.154 23.08C471.154 22.056 471.239 21.2027 471.41 20.52C471.239 19.7947 471.154 18.9413 471.154 17.96C471.154 16.936 471.239 16.0827 471.41 15.4C471.239 14.6747 471.154 13.8213 471.154 12.84C471.154 11.816 471.239 10.9627 471.41 10.28H469.81C469.639 9.55467 469.554 8.70133 469.554 7.72C469.554 6.696 469.639 5.84267 469.81 5.16H473.01C473.181 5.84267 473.266 6.696 473.266 7.72C473.266 8.70133 473.181 9.55467 473.01 10.28H474.61C474.781 10.9627 474.866 11.816 474.866 12.84C474.866 13.8213 474.781 14.6747 474.61 15.4H476.53C476.701 16.0827 476.786 16.936 476.786 17.96C476.786 18.9413 476.701 19.7947 476.53 20.52ZM466.354 43.56C466.354 42.536 466.439 41.6827 466.61 41H469.81C469.981 41.6827 470.066 42.536 470.066 43.56C470.066 44.5413 469.981 45.3947 469.81 46.12H466.61C466.439 45.3947 466.354 44.5413 466.354 43.56Z" fill="black"/>
</svg>
